<svg width="32" height="31" viewBox="0 0 32 31" fill="none" xmlns="http://www.w3.org/2000/svg">
<g filter="url(#filter0_d_14_308)">
<path d="M25.3334 10.9999L27 7.33325L30.6667 5.66658L27 3.99992L25.3334 0.333252L23.6667 3.99992L20 5.66658L23.6667 7.33325L25.3334 10.9999ZM15.3334 11.6666L12 4.33325L8.66671 11.6666L1.33337 14.9999L8.66671 18.3333L12 25.6666L15.3334 18.3333L22.6667 14.9999L15.3334 11.6666ZM25.3334 18.9999L23.6667 22.6666L20 24.3333L23.6667 25.9999L25.3334 29.6666L27 25.9999L30.6667 24.3333L27 22.6666L25.3334 18.9999Z" fill="black"/>
</g>
<defs>
<filter id="filter0_d_14_308" x="-2.66663" y="0.333252" width="37.3334" height="37.3333" filterUnits="userSpaceOnUse" color-interpolation-filters="sRGB">
<feFlood flood-opacity="0" result="BackgroundImageFix"/>
<feColorMatrix in="SourceAlpha" type="matrix" values="0 0 0 0 0 0 0 0 0 0 0 0 0 0 0 0 0 0 127 0" result="hardAlpha"/>
<feOffset dy="4"/>
<feGaussianBlur stdDeviation="2"/>
<feComposite in2="hardAlpha" operator="out"/>
<feColorMatrix type="matrix" values="0 0 0 0 0 0 0 0 0 0 0 0 0 0 0 0 0 0 0.25 0"/>
<feBlend mode="normal" in2="BackgroundImageFix" result="effect1_dropShadow_14_308"/>
<feBlend mode="normal" in="SourceGraphic" in2="effect1_dropShadow_14_308" result="shape"/>
</filter>
</defs>
</svg>
